<svg width="24" height="24" viewBox="0 0 24 24" fill="none" xmlns="http://www.w3.org/2000/svg">
<path d="M8.53033 13.4697C8.23744 13.1768 7.76256 13.1768 7.46967 13.4697C7.17678 13.7626 7.17678 14.2374 7.46967 14.5303L8.53033 13.4697ZM12 18L11.4697 18.5303L12 19.0607L12.5303 18.5303L12 18ZM16.5303 14.5303C16.8232 14.2374 16.8232 13.7626 16.5303 13.4697C16.2374 13.1768 15.7626 13.1768 15.4697 13.4697L16.5303 14.5303ZM12.75 6C12.75 5.58579 12.4142 5.25 12 5.25C11.5858 5.25 11.25 5.58579 11.25 6L12.75 6ZM7.46967 14.5303L11.4697 18.5303L12.5303 17.4697L8.53033 13.4697L7.46967 14.5303ZM12.5303 18.5303L16.5303 14.5303L15.4697 13.4697L11.4697 17.4697L12.5303 18.5303ZM12.75 18L12.75 6L11.25 6L11.25 18L12.75 18Z" fill="#F9F8F7"/>
</svg>
